<?xml version="1.0" standalone="no"?>
<!DOCTYPE svg PUBLIC "-//W3C//DTD SVG 20010904//EN"
 "http://www.w3.org/TR/2001/REC-SVG-20010904/DTD/svg10.dtd">
<svg version="1.0" xmlns="http://www.w3.org/2000/svg"
 width="512.000000pt" height="512.000000pt" viewBox="0 0 512.000000 512.000000"
 preserveAspectRatio="xMidYMid meet">
<metadata>
Created by potrace 1.11, written by Peter Selinger 2001-2013
</metadata>
<g transform="translate(0.000000,512.000000) scale(0.100000,-0.100000)"
fill="#000000" stroke="none">
<path d="M3055 3718 c-66 -14 -80 -35 -192 -277 -53 -114 -88 -189 -235 -506
-75 -159 -147 -315 -161 -345 -14 -30 -45 -98 -70 -150 -62 -132 -111 -238
-132 -285 -10 -22 -44 -95 -77 -163 -32 -68 -58 -125 -58 -126 0 -2 -28 -61
-61 -132 -103 -216 -110 -248 -64 -317 36 -56 131 -74 192 -36 28 18 47 49
109 175 40 85 74 156 74 158 0 3 22 51 49 108 27 56 116 249 199 428 82 179
168 363 190 410 22 47 66 141 97 210 32 69 84 181 116 249 33 67 59 124 59
126 0 2 24 55 54 118 75 158 90 205 82 248 -13 73 -94 123 -171 107z"/>
<path d="M4780 3719 c-22 -5 -47 -21 -65 -42 -16 -19 -88 -160 -159 -313 -72
-154 -153 -328 -181 -389 -29 -60 -59 -126 -68 -145 -17 -38 -83 -179 -140
-300 -37 -79 -110 -235 -272 -585 -53 -115 -114 -246 -135 -290 -63 -135 -68
-165 -35 -221 42 -72 138 -95 207 -50 26 17 80 118 178 336 29 63 73 158 97
210 25 52 57 120 70 150 14 30 56 120 93 200 65 140 83 179 157 339 33 71 54
117 128 276 18 39 47 99 63 135 17 36 65 139 107 230 124 265 136 298 129 344
-11 78 -93 132 -174 115z"/>
<path d="M208 3308 c-46 -27 -70 -63 -76 -114 -6 -59 11 -96 61 -131 23 -16
235 -137 472 -268 237 -131 447 -249 469 -263 l38 -24 -383 -212 c-509 -281
-500 -277 -529 -294 -107 -64 -130 -93 -130 -158 0 -78 67 -146 145 -146 33 0
123 42 280 133 44 25 109 61 145 81 36 19 121 66 190 105 69 38 150 83 180
100 30 16 71 39 90 50 80 45 287 159 498 275 61 33 112 64 112 68 0 5 -377
219 -645 366 -229 126 -592 327 -620 344 -89 54 -192 101 -225 104 -24 2 -50
-4 -72 -16z"/>
</g>
</svg>
